<svg xmlns="http://www.w3.org/2000/svg" xmlns:xlink="http://www.w3.org/1999/xlink" version="1.1" id="Layer_1" x="0px" y="0px" width="100px" height="100px" viewBox="0 0 100 100" enable-background="new 0 0 100 100" xml:space="preserve">
<g id="XMLID_1_">
	<g id="XMLID_2_">
		<g id="XMLID_3_">
			<g>
				<g id="XMLID_4_">
					<g>
						<path d="M47.284,31.665L26.344,1.001h7.494l17.168,24.868L67.927,1.001h7.412L54.54,31.336l2.814,4.303L80.868,1.001h7.588        L61.108,41.437l0.768,1.178c10.779,4.24,18.428,14.735,18.428,27.005c0,15.991-13.006,28.997-28.997,28.997        c-0.991,0-1.949-0.046-2.907-0.156C33.758,97,22.306,84.62,22.306,69.62c0-12.413,7.823-23.016,18.804-27.146L13.336,1.001        h7.478l26.784,39.87c1.209-0.173,2.451-0.252,3.708-0.252c0.61,0,1.224,0.017,1.821,0.063l-0.33-0.503L47.284,31.665z         M74.021,69.62c0-12.459-10.086-22.606-22.527-22.717c-0.062,0-0.125,0-0.187,0c-0.567,0-1.132,0.017-1.697,0.063        c-1.682,0.126-3.315,0.44-4.87,0.911c-9.331,2.829-16.149,11.5-16.149,21.743c0,11.732,8.955,21.425,20.407,22.603        c0.754,0.064,1.524,0.111,2.31,0.111C63.825,92.334,74.021,82.138,74.021,69.62z"/>
						<path d="M51.307,50.516c10.554,0,19.103,8.545,19.103,19.104c0,10.539-8.549,19.103-19.103,19.103        c-10.542,0-19.103-8.563-19.103-19.103C32.204,59.061,40.765,50.516,51.307,50.516z"/>
					</g>
					<g>
					</g>
				</g>
			</g>
			<g>
			</g>
		</g>
		<g>
		</g>
	</g>
	<g>
	</g>
</g>
</svg>