<svg xmlns="http://www.w3.org/2000/svg" xmlns:xlink="http://www.w3.org/1999/xlink" version="1.1" id="Livello_1" x="0px" y="0px" width="100px" height="100px" viewBox="0 0 100 100" enable-background="new 0 0 100 100" xml:space="preserve">
<g>
	<path d="M37.451,66.943l0.898-0.659c-1.846-2.505-2.822-5.474-2.822-8.589h-0.557h-0.557h-9.37l9.868-3.882   c-0.132,0.508-0.244,1.025-0.322,1.548l1.099,0.166c0.156-1.011,0.42-1.992,0.771-2.93l-0.718-1.196   c-0.249,0.566-0.464,1.147-0.645,1.743L23.55,57.695l0,0l11.323,3.765C35.356,63.423,36.226,65.278,37.451,66.943z"/>
	<path d="M50,43.223v-0.557v-0.557v-9.365l3.877,9.854c-0.503-0.127-1.021-0.234-1.543-0.313l-0.166,1.104   c3.071,0.459,5.859,1.87,8.066,4.072l0.391-0.391l0.396-0.396l7.681-7.681l-10.664,5.347c-1.094-0.659-2.261-1.182-3.486-1.553   L50,31.25l-3.76,11.318c-0.869,0.215-1.719,0.508-2.534,0.869l1.191,0.718C46.514,43.55,48.232,43.223,50,43.223z"/>
	<path d="M50,72.168v0.557v0.557v9.37l-3.877-9.858c0.503,0.132,1.021,0.234,1.543,0.313l0.166-1.099   c-3.071-0.464-5.864-1.875-8.066-4.077l-0.391,0.396l-0.396,0.391l-7.681,7.681l10.664-5.342c1.094,0.659,2.261,1.177,3.486,1.553   L50,84.146l0,0l0,0l0,0v-0.005l3.76-11.318c0.869-0.215,1.714-0.508,2.534-0.869l-1.196-0.718   C53.486,71.846,51.768,72.168,50,72.168z"/>
	<path d="M52.3,56.313c0.249,0.415,0.391,0.889,0.391,1.382c0,0.718-0.278,1.396-0.786,1.904c-0.513,0.508-1.187,0.786-1.904,0.786   c-0.498,0-0.967-0.142-1.382-0.391l-3.359,3.359l26.172,15.771L55.659,52.954L52.3,56.313z"/>
	<path d="M47.7,59.077c-0.62-1.035-0.493-2.393,0.396-3.281c0.508-0.508,1.187-0.791,1.904-0.791c0.498,0,0.967,0.142,1.382,0.391   l3.359-3.359L28.569,36.265l15.771,26.172L47.7,59.077z M47.31,55.01c-1.055,1.05-1.353,2.573-0.908,3.896l-1.333,1.338   L33.271,40.967L47.31,55.01z"/>
	<path d="M54.258,15.605c-0.156-2.217-2.002-3.965-4.258-3.965s-4.102,1.748-4.258,3.965c-21.333,2.144-38.047,20.2-38.047,42.09   C7.695,81.021,26.675,100,50,100s42.305-18.979,42.305-42.305C92.305,35.806,75.591,17.749,54.258,15.605z M50,95.918   c-21.074,0-38.223-17.148-38.223-38.223S28.926,19.473,50,19.473s38.223,17.148,38.223,38.223S71.074,95.918,50,95.918z"/>
	<path d="M50,20.586c-20.493,0-37.109,16.616-37.109,37.109c0,20.498,16.616,37.109,37.109,37.109s37.109-16.611,37.109-37.109   C87.109,37.202,70.493,20.586,50,20.586z M75.762,82.285c-0.327-0.313-0.84-0.313-1.162,0.01s-0.322,0.84-0.01,1.167   c-3.047,2.905-6.602,5.278-10.522,6.968c-0.176-0.425-0.659-0.63-1.084-0.459s-0.63,0.654-0.464,1.079   c-3.647,1.372-7.583,2.153-11.685,2.251c-0.015-0.454-0.381-0.815-0.835-0.815s-0.82,0.361-0.835,0.815   c-4.36-0.103-8.525-0.986-12.363-2.515c0.176-0.425-0.024-0.908-0.444-1.089c-0.42-0.176-0.903,0.015-1.089,0.435   c-3.657-1.665-6.987-3.931-9.858-6.67c0.313-0.327,0.313-0.845-0.01-1.167s-0.835-0.322-1.162-0.01   c-2.91-3.047-5.283-6.602-6.973-10.522c0.425-0.171,0.63-0.659,0.459-1.084s-0.654-0.63-1.079-0.464   c-1.372-3.647-2.153-7.583-2.246-11.685c0.449-0.015,0.811-0.381,0.811-0.835s-0.361-0.82-0.811-0.83   c0.098-4.365,0.981-8.525,2.51-12.368c0.425,0.176,0.908-0.02,1.089-0.444c0.176-0.42-0.015-0.903-0.43-1.089   c1.665-3.657,3.926-6.987,6.67-9.854c0.327,0.308,0.84,0.308,1.162-0.015s0.322-0.835,0.01-1.162   c3.047-2.905,6.602-5.283,10.522-6.973c0.176,0.425,0.659,0.63,1.084,0.459s0.63-0.654,0.464-1.079   c3.403-1.279,7.051-2.051,10.854-2.227L50,25.571l1.665-3.457c4.058,0.186,7.939,1.06,11.533,2.495   c-0.176,0.42,0.024,0.903,0.444,1.084s0.903-0.015,1.089-0.43c3.662,1.665,6.987,3.926,9.858,6.67   c-0.313,0.327-0.313,0.84,0.01,1.162s0.84,0.322,1.162,0.015c2.91,3.042,5.283,6.597,6.973,10.518   c-0.425,0.176-0.63,0.659-0.459,1.084s0.654,0.635,1.079,0.464c1.372,3.652,2.153,7.583,2.246,11.689   c-0.449,0.01-0.811,0.376-0.811,0.83s0.361,0.82,0.811,0.835c-0.098,4.36-0.981,8.525-2.51,12.363   c-0.425-0.176-0.908,0.024-1.089,0.444c-0.176,0.42,0.015,0.908,0.43,1.089C80.767,76.089,78.506,79.414,75.762,82.285z"/>
	<path d="M76.445,57.695l-11.318-3.76c-0.483-1.968-1.353-3.823-2.578-5.483l-0.898,0.659c1.846,2.5,2.822,5.469,2.822,8.584h0.557   h0.557h9.365l-9.863,3.882c0.132-0.508,0.244-1.021,0.322-1.548l-1.099-0.166c-0.156,1.016-0.42,1.992-0.771,2.935l0.718,1.191   c0.249-0.562,0.459-1.147,0.645-1.738l11.548-4.556l0,0l0,0l0,0H76.445z"/>
	<circle cx="50" cy="57.695" r="1.298"/>
	<path d="M44.561,14.39c0.156-0.547,0.396-1.064,0.708-1.528c-1.255-0.391-2.354-1.045-2.612-2.148   c-0.439-1.885,0.156-4.028,1.626-5.879C45.83,2.881,48.022,1.67,50,1.67s4.17,1.211,5.718,3.164   c1.47,1.851,2.065,3.994,1.626,5.879c-0.259,1.104-1.357,1.758-2.612,2.148c0.308,0.464,0.552,0.981,0.708,1.528   c1.66-0.562,3.12-1.553,3.53-3.301c0.552-2.383-0.156-5.039-1.943-7.295C55.166,1.455,52.476,0,50,0s-5.166,1.455-7.026,3.794   c-1.787,2.256-2.495,4.912-1.943,7.295C41.436,12.837,42.9,13.828,44.561,14.39z"/>
</g>
</svg>