<?xml version="1.0" encoding="utf-8"?>
<!DOCTYPE svg PUBLIC "-//W3C//DTD SVG 1.1//EN" "http://www.w3.org/Graphics/SVG/1.1/DTD/svg11.dtd">
<svg xmlns:dc="http://purl.org/dc/elements/1.1/" xmlns:cc="http://creativecommons.org/ns#" xmlns:rdf="http://www.w3.org/1999/02/22-rdf-syntax-ns#" xmlns:svg="http://www.w3.org/2000/svg" xmlns="http://www.w3.org/2000/svg" xmlns:sodipodi="http://sodipodi.sourceforge.net/DTD/sodipodi-0.dtd" xmlns:inkscape="http://www.inkscape.org/namespaces/inkscape" inkscape:version="0.48.2 r9819" version="1.1" id="svg2" height="100" width="100" sodipodi:docname="New document 1">
  <defs id="defs4"/>
  <sodipodi:namedview id="base" pagecolor="#ffffff" bordercolor="#666666" borderopacity="1.0" inkscape:pageopacity="0.0" inkscape:pageshadow="2" inkscape:zoom="3.6557421" inkscape:cx="50" inkscape:cy="59.09546" inkscape:document-units="px" inkscape:current-layer="layer1" showgrid="true" inkscape:window-width="1366" inkscape:window-height="706" inkscape:window-x="-8" inkscape:window-y="-8" inkscape:window-maximized="1">
    <inkscape:grid type="xygrid" id="grid2988" empspacing="5" visible="true" enabled="true" snapvisiblegridlinesonly="true"/>
  </sodipodi:namedview>
  <metadata id="metadata7">
    <rdf:RDF>
      <cc:Work rdf:about="">
        <dc:format>image/svg+xml</dc:format>
        <dc:type rdf:resource="http://purl.org/dc/dcmitype/StillImage"/>
        <dc:title/>
      </cc:Work>
    </rdf:RDF>
  </metadata>
  <g inkscape:label="Layer 1" inkscape:groupmode="layer" id="layer1" transform="translate(0,-952.36217)">
    <path style="fill:#000000;stroke:none" d="m 37.90735,953.51227 0,21.87479 -2.21713,0.008 -6.36305,56.60154 -5.71335,0 c 0,7.5857 2.61985,13.0731 6.68384,16.8193 0.44289,0.045 0.9128,0.073 1.40905,0.073 3.81161,0 6.09506,-1.5268 6.09506,-1.5268 0,0 2.2875,1.5268 6.09911,1.5268 3.81161,0 6.09912,-1.5268 6.09912,-1.5268 0,0 2.2875,1.5268 6.09911,1.5268 3.81161,0 6.09911,-1.5268 6.09911,-1.5268 0,0 2.28751,1.5268 6.09912,1.5268 0.18574,0 0.36571,-0 0.54413,-0.012 4.10153,-3.7475 6.74882,-9.2536 6.74882,-16.8802 l -5.28698,0 -6.16409,-56.71526 -2.84246,0.0122 0,-21.78139 -23.38941,0 z m 2.59882,2.59882 8.57612,0 0,1.83136 c -2.62674,0.1303 -4.67789,1.23899 -4.67789,2.58664 l -1.20601,6.03415 c -0.87699,0.31527 -1.39281,0.6995 -1.39281,1.11262 0,0.96833 2.82785,1.76905 6.52954,1.92069 -0.0207,0.092 -0.0325,0.19003 -0.0325,0.28831 0,0.71764 0.58177,1.29941 1.29941,1.29941 0.71765,0 1.29941,-0.58177 1.29941,-1.29941 0,-0.0983 -0.0118,-0.19627 -0.0325,-0.28831 3.70169,-0.15164 6.52954,-0.95236 6.52954,-1.92069 0,-0.41312 -0.51582,-0.79735 -1.39281,-1.11262 l -1.20601,-6.03415 c 0,-1.30282 -1.9172,-2.38234 -4.418,-2.5704 l 0,-1.8476 8.31623,0 0,16.89236 -18.19176,0 0,-16.89236 z m -0.0812,22.60977 20.8718,0 1.51056,13.26618 -22.38236,-13.26618 z m -2.075,1.8273 24.83094,14.7199 0.1137,0.97862 -27.75868,9.00652 2.81404,-24.70504 z m 25.24513,18.33388 2.82622,24.81476 -31.328,-14.5859 0.11776,-1.0233 28.38402,-9.20556 z m -28.8307,13.11996 32.02238,14.9067 0.35734,3.1389 -17.13599,0 -17.29842,-0 2.05469,-18.0456 z m -9.20958,36.6394 a 0.67639095,0.67639095 0 0 0 -0.0447,0 0.67639095,0.67639095 0 0 0 -0.35327,0.1502 0.67639095,0.67639095 0 0 0 -0.008,0 c -0.17557,0.1138 -2.10266,1.3144 -5.43317,1.3563 l 0,1.3522 c 3.03267,-0.037 5.10637,-0.9905 5.87578,-1.409 0.78183,0.4258 2.91902,1.4131 6.05444,1.4131 3.13118,0 5.26984,-0.9863 6.05445,-1.4131 0.78183,0.4258 2.91902,1.4131 6.05445,1.4131 3.13117,0 5.26984,-0.9863 6.05444,-1.4131 0.78417,0.4267 2.9226,1.4131 6.05445,1.4131 3.13117,0 5.26578,-0.9863 6.05039,-1.4131 0.78416,0.4267 2.92259,1.4131 6.05444,1.4131 3.13118,0 5.26984,-0.9863 6.05445,-1.4131 0.73408,0.3994 2.65402,1.2888 5.46565,1.4009 l 0,-1.3563 c -3.10667,-0.1313 -4.89208,-1.2614 -5.03116,-1.3522 -5.2e-4,-4e-4 -0.008,-0 -0.008,-0 a 0.67639095,0.67639095 0 0 0 -0.39794,-0.1462 0.67639095,0.67639095 0 0 0 -0.10964,0 0.67639095,0.67639095 0 0 0 -0.35328,0.1503 0.67639095,0.67639095 0 0 0 -0.008,0 c -0.17868,0.1158 -2.17181,1.3603 -5.61184,1.3603 -3.46972,0 -5.47231,-1.272 -5.61995,-1.3684 -5.2e-4,-4e-4 -0.004,-0 -0.004,-0 a 0.67639095,0.67639095 0 0 0 -0.402,-0.1462 0.67639095,0.67639095 0 0 0 -0.10964,0 0.67639095,0.67639095 0 0 0 -0.35328,0.1502 0.67639095,0.67639095 0 0 0 -0.008,0 c -0.17868,0.1158 -2.16775,1.3604 -5.60777,1.3604 -3.46972,0 -5.47638,-1.2721 -5.62402,-1.3685 -5.2e-4,-4e-4 -0.004,-0 -0.004,-0 a 0.67639095,0.67639095 0 0 0 -0.39795,-0.1462 0.67639095,0.67639095 0 0 0 -0.10964,0 0.67639095,0.67639095 0 0 0 -0.35327,0.1503 0.67639095,0.67639095 0 0 0 -0.008,0 c -0.17868,0.1158 -2.17182,1.3603 -5.61184,1.3603 -3.46972,0 -5.47637,-1.272 -5.62402,-1.3685 -5.2e-4,-3e-4 -0.004,-0 -0.004,-0 a 0.67639095,0.67639095 0 0 0 -0.39794,-0.1461 0.67639095,0.67639095 0 0 0 -0.10964,0 0.67639095,0.67639095 0 0 0 -0.35328,0.1502 0.67639095,0.67639095 0 0 0 -0.008,0 c -0.17868,0.1158 -2.17181,1.3603 -5.61184,1.3603 -3.47298,0 -5.47576,-1.2742 -5.61995,-1.3684 -5.2e-4,-3e-4 -0.004,-0 -0.004,-0 a 0.67639095,0.67639095 0 0 0 -0.402,-0.1462 0.67639095,0.67639095 0 0 0 -0.065,0 z" id="rect2985" inkscape:connector-curvature="0"/>
    <g id="g3085" transform="matrix(0.62640603,0,0,0.62640603,-83.157599,740.49361)" style="fill:#000000;fill-opacity:1;stroke:none"/>
  </g>
</svg>