<?xml version="1.0" encoding="utf-8"?>
<!-- Generator: Adobe Illustrator 15.1.0, SVG Export Plug-In . SVG Version: 6.00 Build 0)  -->
<!DOCTYPE svg PUBLIC "-//W3C//DTD SVG 1.1//EN" "http://www.w3.org/Graphics/SVG/1.1/DTD/svg11.dtd">
<svg version="1.1" id="Layer_1" xmlns="http://www.w3.org/2000/svg" xmlns:xlink="http://www.w3.org/1999/xlink" x="0px" y="0px"
	 width="100px" height="84px" viewBox="0 0 100 84" enable-background="new 0 0 100 84" xml:space="preserve">
<path d="M80,75h-8v-6H28v6h-8v-6H0c0,8.284,6.716,15,15,15h70c8.284,0,15-6.716,15-15H80V75z"/>
<path d="M71,17V9c0-4.962-4.037-9-9-9H38c-4.963,0-9,4.038-9,9v8H0v48h20V52h8v13h44V52h8v13h20V17H71z M37,9c0-0.551,0.448-1,1-1
	h24c0.552,0,1,0.449,1,1v8H37V9z"/>
</svg>
